<svg xmlns="http://www.w3.org/2000/svg" width="24" height="24" viewBox="0 0 24 24"><defs><style>.a{opacity:0.8;}.b{fill:#fff;}</style></defs><g class="a"><path class="b" d="M3.24,24A3.24,3.24,0,0,1,.005,20.95L0,20.76V5.64A3.241,3.241,0,0,1,3.05,2.405L3.24,2.4H9.007a1.08,1.08,0,0,1,.126,2.152l-.126.008H3.24a1.079,1.079,0,0,0-1.072.955L2.16,5.64V20.76a1.079,1.079,0,0,0,.954,1.072l.126.008H18.36a1.079,1.079,0,0,0,1.072-.954l.008-.126V14.993a1.08,1.08,0,0,1,2.152-.125l.008.125V20.76a3.24,3.24,0,0,1-3.05,3.235L18.36,24Zm5.01-7.2A1.051,1.051,0,0,1,7.2,15.75v-4.2a1.054,1.054,0,0,1,.308-.742l10.5-10.5a1.049,1.049,0,0,1,1.485,0l4.2,4.2a1.053,1.053,0,0,1,0,1.485l-10.5,10.5a1.047,1.047,0,0,1-.743.308ZM9.6,11.721V14.4h2.677L21.6,5.077,18.923,2.4ZM12.4,13.2H10.8V11.593l1.173-1.2L13.58,12l-1.174,1.2Z"/></g></svg>